# xmcd
#
# Track frame offsets:
#	150
#	23948
#	47930
#	71966
#	97125
#	120363
#	144919
#	168564
#	191899
#	217491
#	241192
#	268174
#	291362
#
# Disc length: 4207 seconds
#
# Revision: 0
# Processed by: cddbd v1.5.2PL0 Copyright (c) Steve Scherf et al.
# Submitted via: dBpowerAMP V4.0
#
DISCID=d8106d0d
DTITLE=Åke Edwardson - Drakmånad
DYEAR=2006
DGENRE=CD-BOK
TTITLE0=09.01
TTITLE1=09.02
TTITLE2=09.03
TTITLE3=09.04
TTITLE4=09.05
TTITLE5=09.06
TTITLE6=09.07
TTITLE7=09.08
TTITLE8=09.09
TTITLE9=09.10
TTITLE10=09.11
TTITLE11=09.12
TTITLE12=09.13
EXTD=
EXTT0=
EXTT1=
EXTT2=
EXTT3=
EXTT4=
EXTT5=
EXTT6=
EXTT7=
EXTT8=
EXTT9=
EXTT10=
EXTT11=
EXTT12=
PLAYORDER=
